<?xml version="1.0" encoding="utf-8"?>
<!-- Generator: Adobe Illustrator 16.0.0, SVG Export Plug-In . SVG Version: 6.00 Build 0)  -->
<!DOCTYPE svg PUBLIC "-//W3C//DTD SVG 1.1//EN" "http://www.w3.org/Graphics/SVG/1.1/DTD/svg11.dtd">
<svg version="1.1" id="Layer_1" xmlns="http://www.w3.org/2000/svg" xmlns:xlink="http://www.w3.org/1999/xlink" x="0px" y="0px"
	 width="230px" height="230px" viewBox="0 0 720 720" enable-background="new 0 0 720 720" xml:space="preserve">
<g>
	<defs>
		<rect id="SVGID_1_" width="720" height="720"/>
	</defs>
	<clipPath id="SVGID_2_">
		<use xlink:href="#SVGID_1_"  overflow="visible"/>
	</clipPath>
	<path clip-path="url(#SVGID_2_)" fill="#228fe3" d="M607.447,213.23c-33.574-48.876-80.271-86.417-135.04-108.564
		c-2.021-0.816-4.322,0.158-5.14,2.179c-0.816,2.021,0.159,4.322,2.18,5.139c53.329,21.565,98.798,58.121,131.493,105.716
		c33.472,48.725,51.165,105.848,51.165,165.194c0,59.345-17.692,116.467-51.162,165.191
		c-32.693,47.594-78.162,84.15-131.489,105.716c-2.021,0.817-2.997,3.119-2.18,5.14c0.621,1.536,2.1,2.469,3.66,2.469
		c0.494,0,0.995-0.093,1.479-0.289c54.768-22.149,101.463-59.69,135.037-108.564C641.829,502.511,660,443.843,660,382.895
		C660,321.945,641.828,263.277,607.447,213.23"/>
	<path clip-path="url(#SVGID_2_)" fill="#228fe3" d="M261.313,288.428c0.125,0,0.252-0.012,0.379-0.036l197.367-38.401
		c1.07-0.208,1.769-1.245,1.561-2.315c-0.208-1.069-1.246-1.77-2.32-1.56L434,250.842V111.514c0-40.849-34.303-74.014-75.137-74.014
		C318.024,37.5,286,70.665,286,111.514v168.129l-25.055,4.874c-1.07,0.208-1.771,1.245-1.563,2.314
		C259.564,287.773,260.388,288.428,261.313,288.428 M301,111.514c0-15.932,5.896-30.838,16.795-41.971
		c10.882-11.117,25.451-17.24,41.121-17.24c15.925,0,30.898,6.201,42.4,17.463C412.805,81.014,419,95.84,419,111.514v142.209
		l-27,5.375V143.759c0-23.054-4.158-43.89-11.324-58.669c-0.951-1.962-3.42-2.779-5.379-1.83c-1.963,0.951-2.677,3.314-1.726,5.275
		C380.132,102.062,384,122.192,384,143.759v116.876l-52,9.984v-126.86c0-21.211,3.924-41.372,10.445-55.312
		c0.924-1.975,0.164-4.325-1.811-5.248c-1.976-0.925-4.516-0.072-5.439,1.903C328.201,100.053,324,121.432,324,143.759v128.396
		l-23,4.609V111.514z"/>
	<path clip-path="url(#SVGID_2_)" fill="#228fe3" d="M458.306,477.038l-197.367,38.401c-1.07,0.208-1.768,1.244-1.56,2.313
		c0.183,0.942,1.009,1.597,1.934,1.597c0.125,0,0.259-0.012,0.386-0.036L286,514.586V571h68v9.264c0,1.312-0.25,5.432-3.799,5.88
		c-0.109-0.03-0.425-0.06-0.544-0.085L327,581.144v0.005c-1-0.233-2.053-0.322-3.24-0.322c-8.979,0-16.171,7.352-16.171,16.352
		c0,9.021,7.358,16.423,16.337,16.423c0.648,0,1.264,0.165,1.784,0.122c0.338-0.029,0.699,0.277,1.026,0.277h0.283l65.328-9.727
		l0.69-0.438c0.724-0.165,1.472-0.358,1.996-0.358c5.85,0,10.608,4.917,10.608,10.767S400.883,625,395.033,625h-0.296l-72.871-5.465
		c-0.768-0.083-1.552-0.209-2.328-0.209c-11.836,0-21.466,9.587-21.466,21.422c0,11.836,9.626,21.445,21.461,21.445
		c1.808,0,3.593-0.235,5.33-0.68l79.261-17.931l-0.211,0.011L404,643.5v-0.004c1-0.355,2.671-0.528,3.99-0.528
		c7.406,0,13.555,6.106,13.555,13.61c0,6.918-5.026,13.075-11.509,14.017l-2.354,0.345l-0.048,0.173
		c-15.655,2.574-31.706,3.881-47.766,3.888c-77.976-0.034-151.281-30.415-206.421-85.556
		c-55.172-55.172-85.554-128.525-85.554-206.55c0-59.291,17.663-116.37,51.077-165.066c32.637-47.563,78.037-84.123,131.29-105.725
		c2.02-0.82,2.993-3.123,2.175-5.142c-0.821-2.021-3.121-2.992-5.143-2.174c-54.691,22.186-101.315,59.731-134.831,108.575
		C78.141,263.379,60,322.003,60,382.895c0,80.133,31.205,155.522,87.868,212.186C204.471,651.684,279.713,683,359.753,683H360
		c17.253,0,34.508-1.543,51.287-4.442l2.3-0.423l0.071-0.223c9.209-2.508,15.884-11.266,15.884-21.327
		c0-11.857-9.567-21.509-21.325-21.509c-2.057,0-3.996,0.269-5.913,0.824l-78.577,17.769l-0.014-0.044l-0.763,0.221
		c-1.109,0.286-2.255,0.432-3.415,0.432c-7.48,0-13.566-6.088-13.566-13.57s6.088-13.568,13.57-13.568
		c0.494,0,0.991,0.026,1.563,0.087l73.174,5.329l0.39,0.019l0.102-0.01c0.088,0.001,0.177,0.002,0.266,0.002
		c10.202,0,18.502-8.3,18.502-18.502c0-10.204-8.301-18.504-18.503-18.504c-1.416,0-2.716,0.297-3.759,0.534l-0.213,0.049
		l-64.645,9.289c-0.486,0.013-0.954,0.051-1.366,0.086c-0.358,0.029-0.744,0.065-1.114,0.065c-4.624,0-8.432-3.798-8.432-8.467
		c0-4.646,3.444-8.427,8.069-8.427c0.641,0,1.427,0.062,1.427,0.185v-0.005l21.996,4.727l0.421,0.028
		c0.548,0.272,1.31,0.455,2.177,0.455c7.261,0,12.406-5.682,12.406-13.815V571h72v-85.215l25.053-4.873
		c1.07-0.208,1.771-1.244,1.563-2.313C460.408,477.528,459.38,476.825,458.306,477.038 M301,556v-44.293l23-4.609V556H301z M332,556
		v-50.438l52-9.984V556H332z M419,556h-27v-61.958l27-5.377V556z"/>
	<path clip-path="url(#SVGID_2_)" fill="#228fe3" d="M212.175,335.574l12.556-2.441c1.15-0.223,2.098-1.494,2.059-2.813l0.041-12.07
		c-0.039-1.321-0.974-2.224-2.126-2l-42.894,8.338c-1.151,0.223-2.099,1.494-2.06,2.812l-0.041,12.071
		c0.038,1.32,0.975,2.224,2.125,2l13.601-2.643c0.628-0.123,1.033,0.282,1.063,0.999l0.153,63.905c0.039,1.32,0.975,2.225,2.126,2
		l10.462-2.033c1.15-0.224,2.098-1.494,2.058-2.814l-0.152-63.905C211.116,336.263,211.548,335.695,212.175,335.574"/>
	<path clip-path="url(#SVGID_2_)" fill="#228fe3" d="M267.984,378.045l2.746,11.894c0.204,1.045,1.072,1.6,2.014,1.417l10.357-2.014
		c1.674-0.326,2.262-1.768,2.06-2.814l-18.794-76.566c-0.203-1.047-1.07-1.601-2.011-1.418l-14.02,2.726
		c-0.942,0.182-1.748,1.061-1.963,2.19l-18.454,83.808c-0.214,1.128,0.453,2.325,2.126,1.999l11.509-2.236
		c0.94-0.184,1.748-1.063,1.963-2.19l2.903-12.991c0.215-1.126,0.602-1.925,1.545-2.109l16.426-3.192
		C267.332,376.363,267.804,377.115,267.984,378.045 M263.123,360.293l-10.148,1.972c-0.628,0.122-1.011-0.165-0.877-1.155
		l5.144-29.951c0.036-0.371,0.224-0.527,0.537-0.588l0.21-0.041c0.314-0.06,0.441,0.035,0.509,0.385l5.423,27.897
		C264.101,359.74,263.751,360.17,263.123,360.293"/>
	<path clip-path="url(#SVGID_2_)" fill="#228fe3" d="M357.453,372.477l-0.16-79.586c-0.039-1.32-0.976-2.223-2.126-2l-15.379,2.99
		c-1.15,0.223-1.875,0.967-2.232,2.485l-10.923,54.96c-0.036,0.368-0.224,0.526-0.537,0.587l-0.209,0.041
		c-0.315,0.06-0.443-0.037-0.51-0.384l-11.884-50.528c-0.27-1.394-1.013-1.853-2.163-1.629l-14.437,2.806
		c-1.153,0.223-2.1,1.492-2.059,2.813l0.265,79.565c0.039,1.319,0.871,2.243,2.022,2.021l9.207-1.79
		c1.148-0.224,2.097-1.494,2.059-2.813l-0.151-45.448c-0.03-0.719,0.866-1.134,1.002-0.437l10.62,44.018
		c0.374,1.375,1.01,1.854,2.163,1.631l8.683-1.689c1.15-0.223,1.874-0.966,2.231-2.484l10.515-48.125
		c0.179-0.758,0.851-0.648,0.883,0.07l0.148,45.449c0.038,1.319,0.976,2.223,2.126,2l8.787-1.708
		C356.547,375.065,357.492,373.795,357.453,372.477"/>
	<path clip-path="url(#SVGID_2_)" fill="#228fe3" d="M419.164,298.957c-2.101-10.808-12.105-18.152-22.673-16.098l-21.971,4.27
		c-1.151,0.225-2.1,1.494-2.06,2.813l0.161,79.585c0.039,1.32,0.975,2.225,2.126,2l10.462-2.033
		c1.152-0.225,2.098-1.494,2.061-2.814l-0.105-30.137c-0.03-0.719,0.507-1.305,1.136-1.428l9.415-1.83
		C411.84,330.54,422.824,317.789,419.164,298.957 M397.586,316.422l-9.416,1.83c-0.628,0.122-0.927-0.302-0.958-1.019l-0.095-14.457
		c-0.031-0.717,0.4-1.286,1.029-1.407l9.415-1.83c4.186-0.814,6.446,1.883,7.192,5.719
		C405.748,310.372,402.504,315.467,397.586,316.422"/>
	<path clip-path="url(#SVGID_2_)" fill="#228fe3" d="M452.319,270.679c-16.322,3.173-21.26,16.317-22.732,31.078
		c-1.031,10.334-0.908,23.822,0.153,33.748c1.456,14.192,11.374,24.449,27.068,21.398c16.321-3.173,21.259-16.316,22.732-31.079
		c1.032-10.332,0.906-23.82-0.154-33.747C477.931,277.884,467.069,267.812,452.319,270.679 M464.636,294.944
		c1.062,9.927,1.185,23.415,0.153,33.748c-0.574,5.42-3.318,10.295-10.119,11.616c-6.381,1.24-9.706-2.454-10.178-7.671
		c-1.061-9.926-1.184-23.414-0.154-33.748c0.576-5.419,3.736-10.376,10.119-11.616C460.839,286.032,464.165,289.729,464.636,294.944
		"/>
	<path clip-path="url(#SVGID_2_)" fill="#228fe3" d="M524.751,305.939l-15.492-42.83c-0.309-1.025-1.035-1.97-2.602-1.664
		l-11.405,2.216c-1.152,0.223-2.099,1.493-2.06,2.812l0.266,79.566c0.038,1.32,0.871,2.244,2.021,2.021l10.462-2.035
		c1.151-0.223,2.099-1.493,2.059-2.813l-0.076-41.724c-0.029-0.717,0.657-1.092,0.896-0.414l15.465,39.336
		c0.285,0.908,1.012,1.853,2.791,1.508l11.299-2.198c1.15-0.222,2.098-1.493,2.059-2.812l-0.162-79.586
		c-0.039-1.321-0.974-2.223-2.125-1.999l-10.461,2.033c-1.151,0.224-2.1,1.493-2.06,2.813l0.125,45.333
		C525.783,306.221,524.99,306.616,524.751,305.939"/>
	<path clip-path="url(#SVGID_2_)" fill="#228fe3" d="M278.336,494.137c15.17-2.948,22.336-15.802,22.74-30.477
		c0.072-2.427-1.097-3.405-3.19-2.999l-8.474,1.647c-1.987,0.387-2.994,1.909-3.097,3.618c-0.574,5.42-3.319,10.296-10.119,11.617
		c-6.381,1.24-9.707-2.456-10.178-7.672c-1.06-9.927-1.185-23.414-0.154-33.747c0.576-5.42,3.739-10.378,10.12-11.618
		c7.325-1.423,9.707,2.456,10.178,7.673c0.107,1.668,1.088,2.804,3.076,2.418l8.474-1.648c2.093-0.406,3.331-1.854,3.194-4.238
		c-0.657-13.988-12.518-23.625-27.062-20.797c-16.321,3.172-21.257,16.315-22.73,31.076c-1.032,10.336-0.909,23.822,0.154,33.749
		C252.724,486.932,262.643,497.188,278.336,494.137"/>
	<path clip-path="url(#SVGID_2_)" fill="#228fe3" d="M350.983,461.801l-21.971,4.271c-0.627,0.121-1.032-0.283-1.062-1
		l-0.154-63.906c-0.04-1.319-0.974-2.224-2.125-2l-10.462,2.035c-1.153,0.223-2.099,1.492-2.059,2.812l0.264,79.565
		c0.039,1.321,0.871,2.244,2.021,2.021l35.572-6.915c1.152-0.224,2.098-1.492,2.059-2.812l0.044-12.071
		C353.071,462.48,352.134,461.577,350.983,461.801"/>
	<path clip-path="url(#SVGID_2_)" fill="#228fe3" d="M385.421,456.312c-6.173,1.2-9.916-2.415-9.97-7.713l-0.156-56.667
		c-0.039-1.319-0.975-2.223-2.126-1.999l-10.567,2.055c-1.15,0.224-2.099,1.492-2.058,2.812l0.156,56.666
		c0.014,14.595,12.631,24.205,26.86,21.439c16.006-3.111,22.746-16.485,22.73-31.078l-0.156-56.666c-0.04-1.32-0.976-2.225-2.126-2
		l-10.567,2.053c-1.15,0.225-2.099,1.494-2.059,2.813l0.156,56.666C395.592,449.993,392.43,454.95,385.421,456.312"/>
	<path clip-path="url(#SVGID_2_)" fill="#228fe3" d="M472.16,424.977c-0.928-4.768-3.168-9.034-5.862-11.165
		c-0.637-0.479-0.689-1.313,0.013-2.175c4.013-5.604,6.536-12.73,4.841-21.447c-2.101-10.812-10.102-17.338-20.249-15.365
		l-24.691,4.8c-1.15,0.224-2.099,1.493-2.06,2.812l0.161,79.586c0.039,1.321,0.976,2.225,2.126,2.001l24.691-4.8
		C467.66,456.01,475.255,440.901,472.16,424.977 M438.493,395.332c-0.031-0.719,0.401-1.286,1.029-1.408l11.405-2.217
		c3.138-0.61,5.623,1.561,6.256,4.815c0.994,5.114-1.354,9.795-6.167,10.729l-11.404,2.217c-0.627,0.121-1.031-0.283-1.062-1
		L438.493,395.332z M451.105,442.339l-11.404,2.217c-0.627,0.122-1.031-0.282-1.063-0.999l-0.029-15.799
		c-0.031-0.717,0.401-1.284,1.028-1.405l11.404-2.218c3.767-0.731,5.969,2.219,6.714,6.055
		C458.907,436.117,455.813,441.424,451.105,442.339"/>
</g>
</svg>
